<svg xmlns="http://www.w3.org/2000/svg" width="410" height="404" viewBox="0 0 410 404">
  <g fill="none" fill-rule="evenodd">
    <path
      d="M399.641 59.525 215.552 388.201c-2.483 4.397-8.862 4.44-11.402.079L10.45 59.56c-2.91-4.882 1.171-10.959 6.932-10.012l186.525 30.978a6.531 6.531 0 0 0 2.203-.002l185.56-30.93c5.748-.958 9.842 5.08 6.95 9.96Z"
      fill="#41D1FF"
    />
    <path
      d="M292.965.381 156.801 27.103c-2.782.552-4.415 3.424-3.368 6.06l64.31 163.701a3.381 3.381 0 0 0 3.208 2.193h.026a3.381 3.381 0 0 0 3.22-2.165l70.044-164.41c1.08-2.534-.406-5.431-3.18-5.982L302.36 23.76l86.015-16.97C392.12 5.778 386.806-.22 381.6.839Z"
      fill="#FFEA83"
    />
    <path
      d="M292.965.381 156.801 27.103c-2.782.552-4.415 3.424-3.368 6.06l64.31 163.701a3.381 3.381 0 0 0 3.208 2.193h.026a3.381 3.381 0 0 0 3.22-2.165l70.044-164.41c1.08-2.534-.406-5.431-3.18-5.982L302.36 23.76l86.015-16.97C392.12 5.778 386.806-.22 381.6.839Z"
      fill="#FFEA83"
    />
    <path
      d="m205.483 113.397-39.289 83.845c-1.178 2.514.59 5.407 3.343 5.407h27.486c2.93 0 5.575-1.702 6.846-4.352l16.83-34.225c1.27-2.651 3.916-4.353 6.846-4.353h18.46c2.753 0 4.52-2.894 3.343-5.408l-39.289-83.844c-1.331-2.838-5.215-2.838-6.546 0Z"
      fill="#FF7B00"
    />
  </g>
</svg>
